<?xml version="1.0" encoding="utf-8"?>
<!-- Generator: Adobe Illustrator 22.0.0, SVG Export Plug-In . SVG Version: 6.00 Build 0)  -->
<svg version="1.1" id="Layer_1" xmlns="http://www.w3.org/2000/svg" xmlns:xlink="http://www.w3.org/1999/xlink" x="0px" y="0px"
	 viewBox="0 0 100 100" style="enable-background:new 0 0 100 100;" xml:space="preserve">
<style type="text/css">
	.st0{fill:#33449A;stroke:#FCF7F7;stroke-width:4;stroke-miterlimit:10;}
</style>
<g>
	<g>
		<path class="st0" d="M12.1,67.4c-11.6-4.1-4.1-10.8,1-13.7l22.1-17.6l4.5-2.4c2.4-2.1,12.6-1.3,12.6-1.3l33.5,9.6
			c17.3,5.4,1.7,16.1,1.7,16.1l-29,23.3C54.5,83.5,45,86.9,39,83C34.9,79.5,14.2,68.2,12.1,67.4z"/>
		<path class="st0" d="M12.1,58.8C0.5,54.7,8,48,13.1,45.1l22.1-17.6l4.5-2.4c2.4-2.1,12.6-1.3,12.6-1.3l33.5,9.6
			c17.3,5.4,1.7,16.1,1.7,16.1l-29,23.3c-4,2.2-13.6,5.6-19.5,1.7C34.9,70.9,14.2,59.5,12.1,58.8z"/>
		<path class="st0" d="M12.1,49.8C0.5,45.7,8,39,13.1,36.1l22.1-17.6l4.5-2.4c2.4-2.1,12.6-1.3,12.6-1.3l33.5,9.6
			c17.3,5.4,1.7,16.1,1.7,16.1l-29,23.3c-4,2.2-13.6,5.6-19.5,1.7C34.9,61.9,14.2,50.5,12.1,49.8z"/>
	</g>
</g>
</svg>
